<?xml version="1.0" encoding="UTF-8" standalone="no"?>
<svg width="584px" height="182px" viewBox="0 0 584 182" version="1.1" xmlns="http://www.w3.org/2000/svg" xmlns:xlink="http://www.w3.org/1999/xlink" xmlns:sketch="http://www.bohemiancoding.com/sketch/ns">
    <!-- Generator: Sketch 3.2 (9961) - http://www.bohemiancoding.com/sketch -->
    <title>logo</title>
    <desc>Created with Sketch.</desc>
    <defs></defs>
    <g id="Page-1" stroke="none" stroke-width="1" fill="none" fill-rule="evenodd" sketch:type="MSPage">
        <g id="Desktop-HD" sketch:type="MSArtboardGroup" transform="translate(-428.000000, -288.000000)" fill="#F9C032">
            <g id="Landing" sketch:type="MSLayerGroup" transform="translate(-321.000000, -1.000000)">
                <g id="main_inout_logo" transform="translate(749.000000, 146.000000)" sketch:type="MSShapeGroup">
                    <path d="M302.368297,143.874886 L302.368297,168.733205 C333.753375,173.884728 357.618599,200.963532 357.618599,233.887144 C357.618599,266.811989 333.753375,293.69835 302.368297,298.816566 L302.368297,323.882131 C347.211514,318.522129 382.195776,280.15093 382.195776,233.887144 C382.195776,187.623357 347.211514,149.234888 302.368297,143.874886 L302.368297,143.874886 Z M281.615715,144.56817 C236.790974,149.929406 201.801786,188.299371 201.801786,234.563158 C201.801786,280.828178 236.790974,319.198143 281.615715,324.559379 L281.615715,299.71833 C250.230636,294.566806 226.361718,267.488003 226.361718,234.563158 C226.361718,201.639546 250.230636,174.769221 281.615715,169.634969 L281.615715,144.56817 L281.615715,144.56817 Z M136.380883,172.081202 C109.843987,172.081202 87.9360196,193.695148 87.9360196,220.234867 L87.9360196,285.043397 L112.737376,285.043397 L112.737376,220.234867 C112.737376,206.999548 123.166632,196.557105 136.380883,196.557105 C149.595147,196.557105 160.023172,207.016819 160.023172,220.234867 L160.023172,285.043397 L184.583104,285.043397 L184.583104,220.234867 C184.583104,193.695148 162.91656,172.081202 136.380883,172.081202 L136.380883,172.081202 L136.380883,172.081202 Z M399.394737,183.408138 L399.394737,248.215434 C399.394737,274.773658 421.085915,296.370333 447.620348,296.370333 C474.156013,296.370333 496.06398,274.773658 496.06398,248.215434 L496.06398,183.408138 L471.260161,183.408138 L471.260161,248.215434 C471.260161,261.450753 460.835831,271.89443 447.620348,271.89443 C434.399939,271.89443 423.976841,261.433483 423.976841,248.215434 L423.976841,183.408138 L399.394737,183.408138 L399.394737,183.408138 Z M552.011454,143.545514 L520.520445,175.081323 L583.5,175.081323 L552.011454,143.545514 L552.011454,143.545514 Z M520.731075,184.795941 L520.731075,209.39397 L539.765362,209.39397 L539.765362,324.923292 L564.221827,324.923292 L564.221827,209.39397 L583.363275,209.39397 L583.363275,184.795941 L520.731075,184.795941 L520.731075,184.795941 Z M19.7609289,143.545514 L19.7609289,259.074835 L0.619480086,259.074835 L0.619480086,283.672865 L63.2529119,283.672865 L63.2529119,259.074835 L44.2173939,259.074835 L44.2173939,143.545514 L19.7609289,143.545514 L19.7609289,143.545514 Z M0.5,293.386249 L31.9885455,324.923292 L63.4770911,293.386249 L0.5,293.386249 L0.5,293.386249 Z" id="logo"></path>
                </g>
            </g>
        </g>
    </g>
</svg>